# xmcd CD database file
#
# Track frame offsets:
#	150
#	68830
#	122579
#	132679
#	178760
#	228718
#	264067
#	266940
#	291926
#
# Disc length: 4219 seconds
#
# Revision: 0
# Processed by: cddbd v1.5.2PL0 Copyright (c) Steve Scherf et al.
# Submitted via: CDex 1.79
#
DISCID=8e107909
DTITLE=Pat Metheny Unity Group - Kin (<-->)
DYEAR=2014
DGENRE=Jazz
TTITLE0=On Day One
TTITLE1=Rise Up
TTITLE2=Adagia
TTITLE3=Sign of the Season
TTITLE4=Kin (<-->)
TTITLE5=Born
TTITLE6=Genealogy
TTITLE7=We Go On
TTITLE8=Kqu
EXTD=YEAR: 2014
EXTT0=
EXTT1=
EXTT2=
EXTT3=
EXTT4=
EXTT5=
EXTT6=
EXTT7=
EXTT8=
PLAYORDER=
